<svg width="800" height="600" viewBox="0 0 800 600" fill="none" xmlns="http://www.w3.org/2000/svg">
  <!-- Background gradient - Bright and clean -->
  <defs>
    <linearGradient id="bgGradient" x1="0%" y1="0%" x2="100%" y2="100%">
      <stop offset="0%" style="stop-color:#f8f9fa"/>
      <stop offset="100%" style="stop-color:#ffffff"/>
    </linearGradient>
    <linearGradient id="cardGlow" x1="0%" y1="0%" x2="0%" y2="100%">
      <stop offset="0%" style="stop-color:#FAD400;stop-opacity:0.4"/>
      <stop offset="100%" style="stop-color:#FAD400;stop-opacity:0"/>
    </linearGradient>
    <filter id="shadow" x="-20%" y="-20%" width="140%" height="140%">
      <feDropShadow dx="0" dy="8" stdDeviation="16" flood-color="#000" flood-opacity="0.12"/>
    </filter>
    <filter id="glow" x="-50%" y="-50%" width="200%" height="200%">
      <feGaussianBlur stdDeviation="3" result="coloredBlur"/>
      <feMerge>
        <feMergeNode in="coloredBlur"/>
        <feMergeNode in="SourceGraphic"/>
      </feMerge>
    </filter>
  </defs>

  <!-- Background -->
  <rect width="800" height="600" fill="url(#bgGradient)"/>

  <!-- Decorative circles -->
  <circle cx="700" cy="100" r="180" fill="#FAD400" opacity="0.08"/>
  <circle cx="80" cy="520" r="120" fill="#FAD400" opacity="0.06"/>
  <circle cx="400" cy="300" r="250" fill="#FAD400" opacity="0.03"/>

  <!-- Main App Window -->
  <g filter="url(#shadow)">
    <rect x="100" y="60" width="600" height="480" rx="20" fill="#ffffff"/>

    <!-- App Header -->
    <rect x="100" y="60" width="600" height="60" rx="20" fill="#1a1a1a"/>
    <rect x="100" y="100" width="600" height="20" fill="#1a1a1a"/>

    <!-- Window controls -->
    <circle cx="130" cy="90" r="7" fill="#ff5f57"/>
    <circle cx="152" cy="90" r="7" fill="#febc2e"/>
    <circle cx="174" cy="90" r="7" fill="#28c840"/>

    <!-- App title with icon -->
    <rect x="350" y="76" width="100" height="28" rx="14" fill="#FAD400"/>
    <text x="400" y="95" font-family="system-ui, -apple-system, sans-serif" font-size="12" font-weight="700" fill="#1a1a1a" text-anchor="middle">Aura</text>
  </g>

  <!-- Sidebar -->
  <rect x="100" y="120" width="150" height="420" fill="#fafafa"/>

  <!-- User Profile in sidebar -->
  <circle cx="175" cy="160" r="28" fill="#FAD400"/>
  <text x="175" y="167" font-family="system-ui, sans-serif" font-size="18" font-weight="600" fill="#1a1a1a" text-anchor="middle">SA</text>
  <text x="175" y="205" font-family="system-ui, sans-serif" font-size="11" font-weight="600" fill="#1a1a1a" text-anchor="middle">Sarah's Salon</text>

  <!-- Sidebar items -->
  <rect x="115" y="235" width="120" height="36" rx="10" fill="#FAD400"/>
  <text x="175" y="258" font-family="system-ui, sans-serif" font-size="12" font-weight="600" fill="#1a1a1a" text-anchor="middle">Dashboard</text>

  <text x="175" y="295" font-family="system-ui, sans-serif" font-size="12" fill="#888" text-anchor="middle">Bookings</text>
  <text x="175" y="330" font-family="system-ui, sans-serif" font-size="12" fill="#888" text-anchor="middle">Clients</text>
  <text x="175" y="365" font-family="system-ui, sans-serif" font-size="12" fill="#888" text-anchor="middle">Services</text>
  <text x="175" y="400" font-family="system-ui, sans-serif" font-size="12" fill="#888" text-anchor="middle">Staff</text>
  <text x="175" y="435" font-family="system-ui, sans-serif" font-size="12" fill="#888" text-anchor="middle">Payments</text>

  <!-- Main Content Area -->
  <!-- Stats Cards Row -->
  <g>
    <!-- Card 1 - Bookings Today -->
    <rect x="270" y="140" width="130" height="85" rx="14" fill="#ffffff" stroke="#f0f0f0" stroke-width="1.5"/>
    <text x="285" y="165" font-family="system-ui, sans-serif" font-size="11" fill="#888">Today's Bookings</text>
    <text x="285" y="200" font-family="system-ui, sans-serif" font-size="32" font-weight="700" fill="#1a1a1a">12</text>
    <circle cx="375" cy="175" r="18" fill="#FAD400" opacity="0.15"/>
    <text x="375" y="181" font-family="system-ui, sans-serif" font-size="14" text-anchor="middle">📅</text>

    <!-- Card 2 - Revenue -->
    <rect x="415" y="140" width="130" height="85" rx="14" fill="#ffffff" stroke="#f0f0f0" stroke-width="1.5"/>
    <text x="430" y="165" font-family="system-ui, sans-serif" font-size="11" fill="#888">Today's Revenue</text>
    <text x="430" y="200" font-family="system-ui, sans-serif" font-size="28" font-weight="700" fill="#1a1a1a">$2,840</text>
    <circle cx="520" cy="175" r="18" fill="#22c55e" opacity="0.15"/>
    <text x="520" y="181" font-family="system-ui, sans-serif" font-size="14" text-anchor="middle">💰</text>

    <!-- Card 3 - Clients -->
    <rect x="560" y="140" width="120" height="85" rx="14" fill="#FAD400"/>
    <text x="575" y="165" font-family="system-ui, sans-serif" font-size="11" fill="#1a1a1a" opacity="0.7">New Clients</text>
    <text x="575" y="200" font-family="system-ui, sans-serif" font-size="32" font-weight="700" fill="#1a1a1a">+8</text>
    <text x="655" y="175" font-family="system-ui, sans-serif" font-size="10" fill="#1a1a1a" opacity="0.6">this week</text>
  </g>

  <!-- Calendar Section -->
  <text x="285" y="260" font-family="system-ui, sans-serif" font-size="15" font-weight="700" fill="#1a1a1a">Today's Schedule</text>

  <!-- Calendar Grid -->
  <g>
    <!-- Time slots -->
    <text x="285" y="295" font-family="system-ui, sans-serif" font-size="11" fill="#888">9:00 AM</text>
    <rect x="355" y="278" width="315" height="48" rx="10" fill="#FAD400" opacity="0.12"/>
    <rect x="360" y="283" width="4" height="38" rx="2" fill="#FAD400"/>
    <text x="375" y="300" font-family="system-ui, sans-serif" font-size="13" font-weight="600" fill="#1a1a1a">Hair Styling - Sarah Johnson</text>
    <text x="375" y="316" font-family="system-ui, sans-serif" font-size="11" fill="#666">45 min • $65</text>
    <rect x="590" y="288" width="70" height="24" rx="12" fill="#FAD400"/>
    <text x="625" y="304" font-family="system-ui, sans-serif" font-size="10" font-weight="600" fill="#1a1a1a" text-anchor="middle">Confirmed</text>

    <text x="285" y="358" font-family="system-ui, sans-serif" font-size="11" fill="#888">10:30 AM</text>
    <rect x="355" y="341" width="315" height="48" rx="10" fill="#e8f5e9"/>
    <rect x="360" y="346" width="4" height="38" rx="2" fill="#4caf50"/>
    <text x="375" y="363" font-family="system-ui, sans-serif" font-size="13" font-weight="600" fill="#1a1a1a">Facial Treatment - Mike Chen</text>
    <text x="375" y="379" font-family="system-ui, sans-serif" font-size="11" fill="#666">60 min • $85</text>
    <rect x="590" y="351" width="70" height="24" rx="12" fill="#4caf50"/>
    <text x="625" y="367" font-family="system-ui, sans-serif" font-size="10" font-weight="600" fill="#ffffff" text-anchor="middle">Completed</text>

    <text x="285" y="421" font-family="system-ui, sans-serif" font-size="11" fill="#888">12:00 PM</text>
    <rect x="355" y="404" width="315" height="48" rx="10" fill="#fff8e1"/>
    <rect x="360" y="409" width="4" height="38" rx="2" fill="#ff9800"/>
    <text x="375" y="426" font-family="system-ui, sans-serif" font-size="13" font-weight="600" fill="#1a1a1a">Deep Tissue Massage - Emily Davis</text>
    <text x="375" y="442" font-family="system-ui, sans-serif" font-size="11" fill="#666">90 min • $120</text>
    <rect x="590" y="414" width="70" height="24" rx="12" fill="#ff9800"/>
    <text x="625" y="430" font-family="system-ui, sans-serif" font-size="10" font-weight="600" fill="#ffffff" text-anchor="middle">In Progress</text>

    <text x="285" y="484" font-family="system-ui, sans-serif" font-size="11" fill="#888">2:30 PM</text>
    <rect x="355" y="467" width="315" height="48" rx="10" fill="#e3f2fd"/>
    <rect x="360" y="472" width="4" height="38" rx="2" fill="#2196f3"/>
    <text x="375" y="489" font-family="system-ui, sans-serif" font-size="13" font-weight="600" fill="#1a1a1a">Manicure + Pedicure - Lisa Park</text>
    <text x="375" y="505" font-family="system-ui, sans-serif" font-size="11" fill="#666">75 min • $95</text>
    <rect x="590" y="477" width="70" height="24" rx="12" fill="#2196f3"/>
    <text x="625" y="493" font-family="system-ui, sans-serif" font-size="10" font-weight="600" fill="#ffffff" text-anchor="middle">Upcoming</text>
  </g>

  <!-- Floating notification -->
  <g filter="url(#shadow)">
    <rect x="540" y="15" width="220" height="55" rx="14" fill="#ffffff"/>
    <circle cx="570" cy="42" r="16" fill="#22c55e"/>
    <path d="M564 42 L568 46 L576 38" stroke="#fff" stroke-width="2.5" fill="none" stroke-linecap="round" stroke-linejoin="round"/>
    <text x="595" y="36" font-family="system-ui, sans-serif" font-size="12" font-weight="600" fill="#1a1a1a">New booking confirmed!</text>
    <text x="595" y="52" font-family="system-ui, sans-serif" font-size="11" fill="#888">Sarah Johnson • Just now</text>
  </g>
</svg>