<svg xmlns="http://www.w3.org/2000/svg" xmlns:xlink="http://www.w3.org/1999/xlink" width="1000" zoomAndPan="magnify" viewBox="0 0 750 225" height="300" preserveAspectRatio="xMidYMid meet" version="1.0"><defs><g/><clipPath id="b00678b038"><path d="M 240 0 L 736.28125 0 L 736.28125 225 L 240 225 Z M 240 0 " clip-rule="nonzero"/></clipPath><clipPath id="d60809b0c8"><rect x="0" width="497" y="0" height="225"/></clipPath><clipPath id="5a910003e8"><path d="M 2 52 L 70 52 L 70 205 L 2 205 Z M 2 52 " clip-rule="nonzero"/></clipPath><clipPath id="bd5ef27b2d"><path d="M 55.789062 50.554688 L 71.914062 56.46875 L 16.5625 207.390625 L 0.4375 201.476562 Z M 55.789062 50.554688 " clip-rule="nonzero"/></clipPath><clipPath id="9bb439fe76"><path d="M 63.851562 53.511719 C 68.304688 55.144531 70.589844 60.078125 68.957031 64.53125 L 19.535156 199.285156 C 17.902344 203.738281 12.96875 206.023438 8.515625 204.390625 C 4.0625 202.757812 1.777344 197.824219 3.410156 193.371094 L 52.832031 58.617188 C 54.464844 54.164062 59.398438 51.875 63.851562 53.511719 Z M 63.851562 53.511719 " clip-rule="nonzero"/></clipPath><clipPath id="4d11cb6a54"><path d="M 0 0 L 68 0 L 68 153 L 0 153 Z M 0 0 " clip-rule="nonzero"/></clipPath><clipPath id="3db2e7c151"><path d="M 53.789062 -1.445312 L 69.914062 4.46875 L 14.5625 155.390625 L -1.5625 149.476562 Z M 53.789062 -1.445312 " clip-rule="nonzero"/></clipPath><clipPath id="e5b3307f7f"><path d="M 61.851562 1.511719 C 66.304688 3.144531 68.589844 8.078125 66.957031 12.53125 L 17.535156 147.285156 C 15.902344 151.738281 10.96875 154.023438 6.515625 152.390625 C 2.0625 150.757812 -0.222656 145.824219 1.410156 141.371094 L 50.832031 6.617188 C 52.464844 2.164062 57.398438 -0.125 61.851562 1.511719 Z M 61.851562 1.511719 " clip-rule="nonzero"/></clipPath><clipPath id="7f01db9275"><rect x="0" width="68" y="0" height="153"/></clipPath><clipPath id="477c98f464"><path d="M 49.199219 135.8125 L 73.484375 135.8125 L 73.484375 152.988281 L 49.199219 152.988281 Z M 49.199219 135.8125 " clip-rule="nonzero"/></clipPath><clipPath id="cb07fa2c11"><path d="M 49.199219 144.398438 C 49.199219 139.65625 53.042969 135.8125 57.785156 135.8125 L 64.878906 135.8125 C 69.621094 135.8125 73.464844 139.65625 73.464844 144.398438 C 73.464844 149.144531 69.621094 152.988281 64.878906 152.988281 L 57.785156 152.988281 C 53.042969 152.988281 49.199219 149.144531 49.199219 144.398438 Z M 49.199219 144.398438 " clip-rule="nonzero"/></clipPath><clipPath id="b737795e08"><path d="M 0.199219 0.8125 L 24.484375 0.8125 L 24.484375 17.988281 L 0.199219 17.988281 Z M 0.199219 0.8125 " clip-rule="nonzero"/></clipPath><clipPath id="a4a3425c69"><path d="M 0.199219 9.398438 C 0.199219 4.65625 4.042969 0.8125 8.785156 0.8125 L 15.878906 0.8125 C 20.621094 0.8125 24.464844 4.65625 24.464844 9.398438 C 24.464844 14.144531 20.621094 17.988281 15.878906 17.988281 L 8.785156 17.988281 C 4.042969 17.988281 0.199219 14.144531 0.199219 9.398438 Z M 0.199219 9.398438 " clip-rule="nonzero"/></clipPath><clipPath id="e64de72d98"><rect x="0" width="25" y="0" height="18"/></clipPath><clipPath id="38e8fa71af"><path d="M 177 52 L 245 52 L 245 205 L 177 205 Z M 177 52 " clip-rule="nonzero"/></clipPath><clipPath id="ed806118d0"><path d="M 230.769531 50.503906 L 246.894531 56.417969 L 191.519531 207.40625 L 175.394531 201.492188 Z M 230.769531 50.503906 " clip-rule="nonzero"/></clipPath><clipPath id="4c1c5a8075"><path d="M 238.832031 53.460938 C 243.285156 55.097656 245.570312 60.03125 243.9375 64.484375 L 194.496094 199.285156 C 192.863281 203.738281 187.929688 206.023438 183.476562 204.390625 C 179.023438 202.757812 176.738281 197.824219 178.371094 193.371094 L 227.8125 58.570312 C 229.445312 54.117188 234.378906 51.828125 238.832031 53.460938 Z M 238.832031 53.460938 " clip-rule="nonzero"/></clipPath><clipPath id="4e2bb2ab61"><path d="M 0 0 L 68 0 L 68 153 L 0 153 Z M 0 0 " clip-rule="nonzero"/></clipPath><clipPath id="25f6bdf354"><path d="M 53.769531 -1.496094 L 69.894531 4.417969 L 14.519531 155.40625 L -1.605469 149.492188 Z M 53.769531 -1.496094 " clip-rule="nonzero"/></clipPath><clipPath id="b422a0629a"><path d="M 61.832031 1.460938 C 66.285156 3.097656 68.570312 8.03125 66.9375 12.484375 L 17.496094 147.285156 C 15.863281 151.738281 10.929688 154.023438 6.476562 152.390625 C 2.023438 150.757812 -0.261719 145.824219 1.371094 141.371094 L 50.8125 6.570312 C 52.445312 2.117188 57.378906 -0.171875 61.832031 1.460938 Z M 61.832031 1.460938 " clip-rule="nonzero"/></clipPath><clipPath id="329d04f008"><rect x="0" width="68" y="0" height="153"/></clipPath><clipPath id="e690f50b6d"><path d="M 142 52 L 209 52 L 209 205 L 142 205 Z M 142 52 " clip-rule="nonzero"/></clipPath><clipPath id="b707e71faf"><path d="M 195.027344 50.503906 L 211.152344 56.417969 L 155.777344 207.40625 L 139.652344 201.492188 Z M 195.027344 50.503906 " clip-rule="nonzero"/></clipPath><clipPath id="1f3f75d697"><path d="M 203.089844 53.460938 C 207.542969 55.097656 209.828125 60.03125 208.195312 64.484375 L 158.757812 199.285156 C 157.125 203.738281 152.191406 206.023438 147.738281 204.390625 C 143.285156 202.757812 141 197.824219 142.632812 193.371094 L 192.070312 58.570312 C 193.703125 54.117188 198.636719 51.828125 203.089844 53.460938 Z M 203.089844 53.460938 " clip-rule="nonzero"/></clipPath><clipPath id="bfeb98a29d"><path d="M 0 0 L 67 0 L 67 153 L 0 153 Z M 0 0 " clip-rule="nonzero"/></clipPath><clipPath id="55e65e8df0"><path d="M 53.027344 -1.496094 L 69.152344 4.417969 L 13.777344 155.40625 L -2.347656 149.492188 Z M 53.027344 -1.496094 " clip-rule="nonzero"/></clipPath><clipPath id="7aabee8023"><path d="M 61.089844 1.460938 C 65.542969 3.097656 67.828125 8.03125 66.195312 12.484375 L 16.757812 147.285156 C 15.125 151.738281 10.191406 154.023438 5.738281 152.390625 C 1.285156 150.757812 -1 145.824219 0.632812 141.371094 L 50.070312 6.570312 C 51.703125 2.117188 56.636719 -0.171875 61.089844 1.460938 Z M 61.089844 1.460938 " clip-rule="nonzero"/></clipPath><clipPath id="8e7493fdfe"><rect x="0" width="67" y="0" height="153"/></clipPath><clipPath id="997df5e149"><path d="M 91 52 L 159 52 L 159 205 L 91 205 Z M 91 52 " clip-rule="nonzero"/></clipPath><clipPath id="505fe8aef6"><path d="M 160.746094 201.453125 L 144.613281 207.347656 L 89.449219 56.355469 L 105.582031 50.460938 Z M 160.746094 201.453125 " clip-rule="nonzero"/></clipPath><clipPath id="a014a7c605"><path d="M 152.679688 204.398438 C 148.226562 206.027344 143.296875 203.734375 141.667969 199.28125 L 92.414062 64.464844 C 90.785156 60.011719 93.078125 55.078125 97.53125 53.453125 C 101.988281 51.824219 106.917969 54.117188 108.546875 58.570312 L 157.800781 193.386719 C 159.429688 197.839844 157.136719 202.769531 152.679688 204.398438 Z M 152.679688 204.398438 " clip-rule="nonzero"/></clipPath><clipPath id="9769224ad6"><path d="M 0 0 L 68 0 L 68 153 L 0 153 Z M 0 0 " clip-rule="nonzero"/></clipPath><clipPath id="fa1ae342c6"><path d="M 69.746094 149.453125 L 53.613281 155.347656 L -1.550781 4.355469 L 14.582031 -1.539062 Z M 69.746094 149.453125 " clip-rule="nonzero"/></clipPath><clipPath id="24c07f79bb"><path d="M 61.679688 152.398438 C 57.226562 154.027344 52.296875 151.734375 50.667969 147.28125 L 1.414062 12.464844 C -0.214844 8.011719 2.078125 3.078125 6.53125 1.453125 C 10.988281 -0.175781 15.917969 2.117188 17.546875 6.570312 L 66.800781 141.386719 C 68.429688 145.839844 66.136719 150.769531 61.679688 152.398438 Z M 61.679688 152.398438 " clip-rule="nonzero"/></clipPath><clipPath id="3d9d50d46e"><rect x="0" width="68" y="0" height="153"/></clipPath><clipPath id="56c8be5fcc"><path d="M 53 52 L 120 52 L 120 205 L 53 205 Z M 53 52 " clip-rule="nonzero"/></clipPath><clipPath id="b1754f6737"><path d="M 121.992188 201.453125 L 105.859375 207.347656 L 50.695312 56.355469 L 66.828125 50.460938 Z M 121.992188 201.453125 " clip-rule="nonzero"/></clipPath><clipPath id="b5b307431c"><path d="M 113.925781 204.398438 C 109.472656 206.027344 104.542969 203.734375 102.914062 199.28125 L 53.660156 64.464844 C 52.03125 60.011719 54.324219 55.078125 58.777344 53.453125 C 63.234375 51.824219 68.164062 54.117188 69.792969 58.570312 L 119.046875 193.386719 C 120.675781 197.839844 118.382812 202.769531 113.925781 204.398438 Z M 113.925781 204.398438 " clip-rule="nonzero"/></clipPath><clipPath id="4bbb77c5ed"><path d="M 0 0 L 67 0 L 67 153 L 0 153 Z M 0 0 " clip-rule="nonzero"/></clipPath><clipPath id="b7373facf7"><path d="M 68.992188 149.453125 L 52.859375 155.347656 L -2.304688 4.355469 L 13.828125 -1.539062 Z M 68.992188 149.453125 " clip-rule="nonzero"/></clipPath><clipPath id="a6527bace4"><path d="M 60.925781 152.398438 C 56.472656 154.027344 51.542969 151.734375 49.914062 147.28125 L 0.660156 12.464844 C -0.96875 8.011719 1.324219 3.078125 5.777344 1.453125 C 10.234375 -0.175781 15.164062 2.117188 16.792969 6.570312 L 66.046875 141.386719 C 67.675781 145.839844 65.382812 150.769531 60.925781 152.398438 Z M 60.925781 152.398438 " clip-rule="nonzero"/></clipPath><clipPath id="565d683906"><rect x="0" width="67" y="0" height="153"/></clipPath><clipPath id="e49c538f26"><path d="M 232.890625 17.625 L 260.898438 17.625 L 260.898438 45.628906 L 232.890625 45.628906 Z M 232.890625 17.625 " clip-rule="nonzero"/></clipPath><clipPath id="9f8c742623"><path d="M 246.894531 17.625 C 239.160156 17.625 232.890625 23.894531 232.890625 31.628906 C 232.890625 39.363281 239.160156 45.628906 246.894531 45.628906 C 254.628906 45.628906 260.898438 39.363281 260.898438 31.628906 C 260.898438 23.894531 254.628906 17.625 246.894531 17.625 Z M 246.894531 17.625 " clip-rule="nonzero"/></clipPath><clipPath id="ef260385a8"><path d="M 0.890625 0.625 L 28.898438 0.625 L 28.898438 28.628906 L 0.890625 28.628906 Z M 0.890625 0.625 " clip-rule="nonzero"/></clipPath><clipPath id="eb075d240b"><path d="M 14.894531 0.625 C 7.160156 0.625 0.890625 6.894531 0.890625 14.628906 C 0.890625 22.363281 7.160156 28.628906 14.894531 28.628906 C 22.628906 28.628906 28.898438 22.363281 28.898438 14.628906 C 28.898438 6.894531 22.628906 0.625 14.894531 0.625 Z M 14.894531 0.625 " clip-rule="nonzero"/></clipPath><clipPath id="0fd9ad637d"><rect x="0" width="29" y="0" height="29"/></clipPath><clipPath id="944603c4f1"><rect x="0" width="737" y="0" height="225"/></clipPath></defs><g transform="matrix(1, 0, 0, 1, 7, -0.000000000000008531)"><g clip-path="url(#944603c4f1)"><g clip-path="url(#b00678b038)"><g transform="matrix(1, 0, 0, 1, 240, -0.000000000000008531)"><g clip-path="url(#d60809b0c8)"><g fill="#000000" fill-opacity="1"><g transform="translate(1.030673, 201.734763)"><g><path d="M 50.296875 -149.03125 L 57.78125 -149.03125 C 64.707031 -149.03125 71.046875 -147.332031 76.796875 -143.9375 C 82.554688 -140.539062 87.128906 -135.96875 90.515625 -130.21875 C 93.910156 -124.46875 95.609375 -118.128906 95.609375 -111.203125 L 95.609375 -93.328125 L 68.59375 -93.328125 L 68.59375 -112.875 C 68.59375 -116.195312 67.378906 -119.066406 64.953125 -121.484375 C 62.523438 -123.910156 59.648438 -125.125 56.328125 -125.125 L 51.75 -125.125 C 48.289062 -125.125 45.382812 -123.910156 43.03125 -121.484375 C 40.675781 -119.066406 39.5 -116.195312 39.5 -112.875 L 39.5 -32.640625 C 39.5 -29.304688 40.675781 -26.425781 43.03125 -24 C 45.382812 -21.582031 48.289062 -20.375 51.75 -20.375 L 56.328125 -20.375 C 59.648438 -20.375 62.523438 -21.582031 64.953125 -24 C 67.378906 -26.425781 68.59375 -29.304688 68.59375 -32.640625 L 68.59375 -52.171875 L 95.609375 -52.171875 L 95.609375 -34.296875 C 95.609375 -27.367188 93.910156 -21.03125 90.515625 -15.28125 C 87.128906 -9.53125 82.554688 -4.957031 76.796875 -1.5625 C 71.046875 1.832031 64.707031 3.53125 57.78125 3.53125 L 50.296875 3.53125 C 43.367188 3.53125 37.03125 1.832031 31.28125 -1.5625 C 25.53125 -4.957031 20.957031 -9.53125 17.5625 -15.28125 C 14.164062 -21.03125 12.46875 -27.367188 12.46875 -34.296875 L 12.46875 -111.203125 C 12.46875 -118.128906 14.164062 -124.46875 17.5625 -130.21875 C 20.957031 -135.96875 25.53125 -140.539062 31.28125 -143.9375 C 37.03125 -147.332031 43.367188 -149.03125 50.296875 -149.03125 Z M 50.296875 -149.03125 "/></g></g></g><g fill="#000000" fill-opacity="1"><g transform="translate(103.923921, 201.734763)"><g><path d="M 69.84375 -51.34375 L 69.84375 -49.46875 L 98.734375 -0.203125 L 70.671875 -0.203125 L 42.203125 -47.8125 L 40.953125 -47.8125 L 41.15625 0 L 15.171875 0 L 14.546875 -145.703125 L 53.828125 -145.703125 C 60.765625 -145.703125 67.070312 -144.003906 72.75 -140.609375 C 78.425781 -137.222656 83 -132.6875 86.46875 -127 C 89.9375 -121.320312 91.671875 -115.019531 91.671875 -108.09375 L 91.671875 -85.640625 C 91.804688 -78.015625 89.828125 -71.15625 85.734375 -65.0625 C 81.648438 -58.96875 76.351562 -54.394531 69.84375 -51.34375 Z M 40.734375 -70.671875 L 52.59375 -70.671875 C 55.914062 -70.671875 58.789062 -71.882812 61.21875 -74.3125 C 63.644531 -76.738281 64.785156 -79.613281 64.640625 -82.9375 L 64.640625 -110.578125 C 64.640625 -113.898438 63.425781 -116.773438 61 -119.203125 C 58.582031 -121.628906 55.707031 -122.84375 52.375 -122.84375 L 40.53125 -122.84375 Z M 40.734375 -70.671875 "/></g></g></g><g fill="#000000" fill-opacity="1"><g transform="translate(204.738489, 201.734763)"><g><path d="M 50.296875 -149.03125 L 59.234375 -149.03125 C 66.171875 -149.03125 72.515625 -147.332031 78.265625 -143.9375 C 84.015625 -140.539062 88.582031 -135.96875 91.96875 -130.21875 C 95.363281 -124.46875 97.0625 -118.128906 97.0625 -111.203125 L 97.0625 -34.296875 C 97.0625 -27.367188 95.363281 -21.03125 91.96875 -15.28125 C 88.582031 -9.53125 84.015625 -4.957031 78.265625 -1.5625 C 72.515625 1.832031 66.171875 3.53125 59.234375 3.53125 L 50.296875 3.53125 C 43.367188 3.53125 37.03125 1.832031 31.28125 -1.5625 C 25.53125 -4.957031 20.957031 -9.53125 17.5625 -15.28125 C 14.164062 -21.03125 12.46875 -27.367188 12.46875 -34.296875 L 12.46875 -111.203125 C 12.46875 -118.128906 14.164062 -124.46875 17.5625 -130.21875 C 20.957031 -135.96875 25.53125 -140.539062 31.28125 -143.9375 C 37.03125 -147.332031 43.367188 -149.03125 50.296875 -149.03125 Z M 70.046875 -32.640625 L 70.046875 -112.875 C 70.046875 -116.195312 68.867188 -119.066406 66.515625 -121.484375 C 64.160156 -123.910156 61.25 -125.125 57.78125 -125.125 L 51.75 -125.125 C 48.425781 -125.125 45.585938 -123.910156 43.234375 -121.484375 C 40.878906 -119.066406 39.703125 -116.195312 39.703125 -112.875 L 39.703125 -32.640625 C 39.703125 -29.304688 40.878906 -26.425781 43.234375 -24 C 45.585938 -21.582031 48.425781 -20.375 51.75 -20.375 L 57.78125 -20.375 C 61.25 -20.375 64.160156 -21.582031 66.515625 -24 C 68.867188 -26.425781 70.046875 -29.304688 70.046875 -32.640625 Z M 70.046875 -32.640625 "/></g></g></g><g fill="#000000" fill-opacity="1"><g transform="translate(314.283414, 201.734763)"><g><path d="M 14.546875 0 L 14.546875 -145.5 L 81.265625 -145.5 L 81.265625 -122.640625 L 40.53125 -122.640625 L 40.53125 -79.1875 L 66.515625 -79.1875 L 66.515625 -56.328125 L 40.53125 -56.328125 L 40.53125 0 Z M 14.546875 0 "/></g></g></g><g fill="#000000" fill-opacity="1"><g transform="translate(402.833929, 201.734763)"><g><path d="M 5.203125 -122.640625 L 5.203125 -145.5 L 87.515625 -145.5 L 87.515625 -122.640625 L 59.453125 -122.640625 L 59.453125 0 L 33.46875 0 L 33.46875 -122.640625 Z M 5.203125 -122.640625 "/></g></g></g></g></g></g><g clip-path="url(#5a910003e8)"><g clip-path="url(#bd5ef27b2d)"><g clip-path="url(#9bb439fe76)"><g transform="matrix(1, 0, 0, 1, 2, 52)"><g clip-path="url(#7f01db9275)"><g clip-path="url(#4d11cb6a54)"><g clip-path="url(#3db2e7c151)"><g clip-path="url(#e5b3307f7f)"><path fill="#000000" d="M 53.789062 -1.445312 L 69.914062 4.46875 L 14.585938 155.328125 L -1.542969 149.414062 Z M 53.789062 -1.445312 " fill-opacity="1" fill-rule="nonzero"/></g></g></g></g></g></g></g></g><g clip-path="url(#477c98f464)"><g clip-path="url(#cb07fa2c11)"><g transform="matrix(1, 0, 0, 1, 49, 135)"><g clip-path="url(#e64de72d98)"><g clip-path="url(#b737795e08)"><g clip-path="url(#a4a3425c69)"><path fill="#000000" d="M 0.199219 17.988281 L 0.199219 0.8125 L 24.484375 0.8125 L 24.484375 17.988281 Z M 0.199219 17.988281 " fill-opacity="1" fill-rule="nonzero"/></g></g></g></g></g></g><g clip-path="url(#38e8fa71af)"><g clip-path="url(#ed806118d0)"><g clip-path="url(#4c1c5a8075)"><g transform="matrix(1, 0, 0, 1, 177, 52)"><g clip-path="url(#329d04f008)"><g clip-path="url(#4e2bb2ab61)"><g clip-path="url(#25f6bdf354)"><g clip-path="url(#b422a0629a)"><path fill="#ffffff" d="M 53.769531 -1.496094 L 69.894531 4.417969 L 14.542969 155.34375 L -1.585938 149.429688 Z M 53.769531 -1.496094 " fill-opacity="1" fill-rule="nonzero"/></g></g></g></g></g></g></g></g><g clip-path="url(#e690f50b6d)"><g clip-path="url(#b707e71faf)"><g clip-path="url(#1f3f75d697)"><g transform="matrix(1, 0, 0, 1, 142, 52)"><g clip-path="url(#8e7493fdfe)"><g clip-path="url(#bfeb98a29d)"><g clip-path="url(#55e65e8df0)"><g clip-path="url(#7aabee8023)"><path fill="#000000" d="M 53.027344 -1.496094 L 69.152344 4.417969 L 13.800781 155.34375 L -2.324219 149.429688 Z M 53.027344 -1.496094 " fill-opacity="1" fill-rule="nonzero"/></g></g></g></g></g></g></g></g><g clip-path="url(#997df5e149)"><g clip-path="url(#505fe8aef6)"><g clip-path="url(#a014a7c605)"><g transform="matrix(1, 0, 0, 1, 91, 52)"><g clip-path="url(#3d9d50d46e)"><g clip-path="url(#9769224ad6)"><g clip-path="url(#fa1ae342c6)"><g clip-path="url(#24c07f79bb)"><path fill="#000000" d="M 69.746094 149.453125 L 53.613281 155.347656 L -1.527344 4.417969 L 14.605469 -1.476562 Z M 69.746094 149.453125 " fill-opacity="1" fill-rule="nonzero"/></g></g></g></g></g></g></g></g><g clip-path="url(#56c8be5fcc)"><g clip-path="url(#b1754f6737)"><g clip-path="url(#b5b307431c)"><g transform="matrix(1, 0, 0, 1, 53, 52)"><g clip-path="url(#565d683906)"><g clip-path="url(#4bbb77c5ed)"><g clip-path="url(#b7373facf7)"><g clip-path="url(#a6527bace4)"><path fill="#000000" d="M 68.992188 149.453125 L 52.859375 155.347656 L -2.28125 4.417969 L 13.851562 -1.476562 Z M 68.992188 149.453125 " fill-opacity="1" fill-rule="nonzero"/></g></g></g></g></g></g></g></g><g clip-path="url(#e49c538f26)"><g clip-path="url(#9f8c742623)"><g transform="matrix(1, 0, 0, 1, 232, 17)"><g clip-path="url(#0fd9ad637d)"><g clip-path="url(#ef260385a8)"><g clip-path="url(#eb075d240b)"><path fill="#ffffff" d="M 0.890625 0.625 L 28.898438 0.625 L 28.898438 28.628906 L 0.890625 28.628906 Z M 0.890625 0.625 " fill-opacity="1" fill-rule="nonzero"/></g></g></g></g></g></g></g></g></svg>