<svg width="1200" height="630" viewBox="0 0 1200 630" fill="none" xmlns="http://www.w3.org/2000/svg">
  <defs>
    <linearGradient id="heroGradient" x1="0%" y1="0%" x2="100%" y2="100%">
      <stop offset="0%" style="stop-color:#FAD400"/>
      <stop offset="100%" style="stop-color:#f5c800"/>
    </linearGradient>
    <filter id="textShadow" x="-20%" y="-20%" width="140%" height="140%">
      <feDropShadow dx="0" dy="4" stdDeviation="8" flood-color="#000" flood-opacity="0.15"/>
    </filter>
  </defs>

  <!-- Background - Split design -->
  <rect width="700" height="630" fill="url(#heroGradient)"/>
  <rect x="700" y="0" width="500" height="630" fill="#1a1a1a"/>

  <!-- Diagonal transition -->
  <polygon points="650,0 750,0 650,630 550,630" fill="#1a1a1a"/>

  <!-- Left side content -->
  <g filter="url(#textShadow)">
    <!-- Logo mark -->
    <circle cx="100" cy="100" r="40" fill="#1a1a1a"/>
    <text x="100" y="112" font-family="system-ui, -apple-system, BlinkMacSystemFont, sans-serif" font-size="28" font-weight="700" fill="#FAD400" text-anchor="middle">A</text>

    <!-- Main headline -->
    <text x="80" y="250" font-family="system-ui, -apple-system, BlinkMacSystemFont, sans-serif" font-size="64" font-weight="800" fill="#1a1a1a">Software</text>
    <text x="80" y="320" font-family="system-ui, -apple-system, BlinkMacSystemFont, sans-serif" font-size="64" font-weight="800" fill="#1a1a1a">Built to Grow</text>
    <text x="80" y="390" font-family="system-ui, -apple-system, BlinkMacSystemFont, sans-serif" font-size="64" font-weight="800" fill="#1a1a1a">with</text>
    <text x="200" y="390" font-family="system-ui, -apple-system, BlinkMacSystemFont, sans-serif" font-size="64" font-weight="800" fill="#1a1a1a">YOU!</text>

    <!-- Squiggle underline for YOU -->
    <path d="M200 400 Q220 410, 240 400 T280 400 T320 400 T360 400" stroke="#1a1a1a" stroke-width="4" fill="none"/>

    <!-- Tagline -->
    <text x="80" y="470" font-family="system-ui, -apple-system, BlinkMacSystemFont, sans-serif" font-size="22" fill="#1a1a1a" opacity="0.8">Affordable, all-in-one software for</text>
    <text x="80" y="500" font-family="system-ui, -apple-system, BlinkMacSystemFont, sans-serif" font-size="22" fill="#1a1a1a" opacity="0.8">wellness businesses and schools</text>
  </g>

  <!-- URL at bottom -->
  <text x="80" y="580" font-family="system-ui, -apple-system, BlinkMacSystemFont, sans-serif" font-size="20" font-weight="600" fill="#1a1a1a">avicroft.com</text>

  <!-- Right side - App mockup preview -->
  <g>
    <!-- Wellness App Card -->
    <rect x="740" y="100" width="380" height="200" rx="16" fill="#ffffff" opacity="0.1"/>
    <rect x="755" y="115" width="350" height="170" rx="12" fill="#ffffff"/>

    <!-- Mini app header -->
    <rect x="755" y="115" width="350" height="35" rx="12" fill="#2a2a2a"/>
    <rect x="755" y="138" width="350" height="12" fill="#2a2a2a"/>
    <circle cx="775" cy="132" r="5" fill="#ff5f57"/>
    <circle cx="790" cy="132" r="5" fill="#febc2e"/>
    <circle cx="805" cy="132" r="5" fill="#28c840"/>
    <text x="930" y="137" font-family="system-ui, sans-serif" font-size="11" fill="#FAD400" text-anchor="middle">Wellness</text>

    <!-- Mini stat cards -->
    <rect x="770" y="165" width="70" height="40" rx="6" fill="#f5f5f5"/>
    <text x="805" y="183" font-family="system-ui, sans-serif" font-size="8" fill="#888" text-anchor="middle">Bookings</text>
    <text x="805" y="198" font-family="system-ui, sans-serif" font-size="14" font-weight="700" fill="#1a1a1a" text-anchor="middle">12</text>

    <rect x="850" y="165" width="70" height="40" rx="6" fill="#f5f5f5"/>
    <text x="885" y="183" font-family="system-ui, sans-serif" font-size="8" fill="#888" text-anchor="middle">Revenue</text>
    <text x="885" y="198" font-family="system-ui, sans-serif" font-size="14" font-weight="700" fill="#1a1a1a" text-anchor="middle">$2.8k</text>

    <rect x="930" y="165" width="70" height="40" rx="6" fill="#FAD400"/>
    <text x="965" y="183" font-family="system-ui, sans-serif" font-size="8" fill="#1a1a1a" text-anchor="middle">Clients</text>
    <text x="965" y="198" font-family="system-ui, sans-serif" font-size="14" font-weight="700" fill="#1a1a1a" text-anchor="middle">+8</text>

    <!-- Mini calendar items -->
    <rect x="770" y="215" width="235" height="25" rx="4" fill="#FAD400" opacity="0.15"/>
    <rect x="774" y="219" width="3" height="17" rx="1.5" fill="#FAD400"/>
    <text x="785" y="232" font-family="system-ui, sans-serif" font-size="9" fill="#1a1a1a">9:00 AM - Hair Styling</text>

    <rect x="770" y="248" width="235" height="25" rx="4" fill="#e8f5e9"/>
    <rect x="774" y="252" width="3" height="17" rx="1.5" fill="#4caf50"/>
    <text x="785" y="265" font-family="system-ui, sans-serif" font-size="9" fill="#1a1a1a">10:30 AM - Facial Treatment</text>
  </g>

  <g>
    <!-- Education App Card -->
    <rect x="740" y="330" width="380" height="200" rx="16" fill="#ffffff" opacity="0.1"/>
    <rect x="755" y="345" width="350" height="170" rx="12" fill="#ffffff"/>

    <!-- Mini app header -->
    <rect x="755" y="345" width="350" height="35" rx="12" fill="#2a2a2a"/>
    <rect x="755" y="368" width="350" height="12" fill="#2a2a2a"/>
    <circle cx="775" cy="362" r="5" fill="#ff5f57"/>
    <circle cx="790" cy="362" r="5" fill="#febc2e"/>
    <circle cx="805" cy="362" r="5" fill="#28c840"/>
    <text x="930" y="367" font-family="system-ui, sans-serif" font-size="11" fill="#FAD400" text-anchor="middle">Education</text>

    <!-- Mini stat cards -->
    <rect x="770" y="395" width="70" height="40" rx="6" fill="#f5f5f5"/>
    <text x="805" y="413" font-family="system-ui, sans-serif" font-size="8" fill="#888" text-anchor="middle">Students</text>
    <text x="805" y="428" font-family="system-ui, sans-serif" font-size="14" font-weight="700" fill="#1a1a1a" text-anchor="middle">1,284</text>

    <rect x="850" y="395" width="70" height="40" rx="6" fill="#f5f5f5"/>
    <text x="885" y="413" font-family="system-ui, sans-serif" font-size="8" fill="#888" text-anchor="middle">Teachers</text>
    <text x="885" y="428" font-family="system-ui, sans-serif" font-size="14" font-weight="700" fill="#1a1a1a" text-anchor="middle">86</text>

    <rect x="930" y="395" width="70" height="40" rx="6" fill="#FAD400"/>
    <text x="965" y="413" font-family="system-ui, sans-serif" font-size="8" fill="#1a1a1a" text-anchor="middle">Fees</text>
    <text x="965" y="428" font-family="system-ui, sans-serif" font-size="14" font-weight="700" fill="#1a1a1a" text-anchor="middle">₦4.2M</text>

    <!-- Mini chart -->
    <rect x="770" y="445" width="235" height="55" rx="6" fill="#f8f9fa"/>
    <rect x="785" y="470" width="20" height="25" rx="3" fill="#FAD400"/>
    <rect x="815" y="460" width="20" height="35" rx="3" fill="#FAD400" opacity="0.8"/>
    <rect x="845" y="465" width="20" height="30" rx="3" fill="#FAD400" opacity="0.9"/>
    <rect x="875" y="455" width="20" height="40" rx="3" fill="#FAD400"/>
    <rect x="905" y="468" width="20" height="27" rx="3" fill="#FAD400" opacity="0.7"/>
    <text x="887" y="508" font-family="system-ui, sans-serif" font-size="8" fill="#888" text-anchor="middle">Weekly Attendance</text>

    <!-- Coming Soon badge -->
    <rect x="1010" y="345" width="80" height="24" rx="12" fill="#FAD400"/>
    <text x="1050" y="361" font-family="system-ui, sans-serif" font-size="9" font-weight="600" fill="#1a1a1a" text-anchor="middle">Coming Soon</text>
  </g>
</svg>